<svg xmlns="http://www.w3.org/2000/svg" xmlns:xlink="http://www.w3.org/1999/xlink" width="160.677" height="143.416" viewBox="0 0 160.677 143.416">
  <defs>
    <linearGradient id="linear-gradient" x1="0.5" x2="0.5" y2="1" gradientUnits="objectBoundingBox">
      <stop offset="0" stop-color="#d980fa"/>
      <stop offset="1" stop-color="#5659a6"/>
    </linearGradient>
  </defs>
  <g id="coughing" transform="translate(-933.095 -506.341)">
    <path id="Path_22" data-name="Path 22" d="M61.113,35.409c27.2,4.95,71.3-20.5,71.3,15.832s-38.2,81.252-71.724,81.252S0,103.042,0,66.711,33.908,30.459,61.113,35.409Z" transform="translate(921.365 526.912) rotate(-22)" opacity="0.15" fill="url(#linear-gradient)"/>
    <g id="Group_37" data-name="Group 37" transform="translate(13 11)">
      <circle id="Ellipse_12" data-name="Ellipse 12" cx="38" cy="38" r="38" transform="translate(922 516)" fill="#fff"/>
      <g id="symptoms" transform="translate(864.193 497)">
        <path id="Path_23" data-name="Path 23" d="M127.169,350.386l-8.869-3.548H87.257l-8.869,3.548a6.467,6.467,0,0,0-4.066,6v12.437a3.88,3.88,0,0,0,3.88,3.88H97.6l5.33-3.707,5.017,3.707h19.4a3.88,3.88,0,0,0,3.88-3.88V356.391A6.468,6.468,0,0,0,127.169,350.386Z" transform="translate(-13.928 -292.512)" fill="#dad8db"/>
        <path id="Path_24" data-name="Path 24" d="M194.323,0H183.556a6.467,6.467,0,0,0-5.381,2.88l-.667,1-3.842,6.467V25.869h31V10.348A10.348,10.348,0,0,0,194.323,0Z" transform="translate(-97.712)" fill="#966a5b"/>
        <path id="Path_25" data-name="Path 25" d="M149.442,24.774h-2.587a6.467,6.467,0,0,0-6.467,6.467V46.763h9.054Z" transform="translate(-69.646 -20.894)" fill="#785353"/>
        <path id="Path_26" data-name="Path 26" d="M210.6,91.635h-1.94a2.587,2.587,0,0,1-2.587-2.587V86.461a3.88,3.88,0,0,0-3.88-3.88H186.673a3.876,3.876,0,0,0-1.293.221L183,99.4c0,7.858,3.576,14.228,11.434,14.228A14.228,14.228,0,0,0,208.662,99.4V98.1h1.756a3.361,3.361,0,0,0,3.4-2.9A3.234,3.234,0,0,0,210.6,91.635Z" transform="translate(-105.584 -69.646)" fill="#ffe09f"/>
        <path id="Path_27" data-name="Path 27" d="M142.478,100.579v-16.6a3.892,3.892,0,0,0-2.587,3.661v2.587a2.587,2.587,0,0,1-2.587,2.587h-1.756a3.361,3.361,0,0,0-3.4,2.9,3.234,3.234,0,0,0,3.217,3.567h1.94v1.294a14.183,14.183,0,0,0,16.815,13.982A14.224,14.224,0,0,1,142.478,100.579Z" transform="translate(-62.682 -70.829)" fill="#f6d190"/>
        <path id="Path_28" data-name="Path 28" d="M193.028,198.2q-.379.007-.753.033c-8.181.558-10.6,12.047-10.6,16v25.355a1.293,1.293,0,0,0,1.293,1.293h24.576a1.293,1.293,0,0,0,1.293-1.293v-25.87A15.521,15.521,0,0,0,193.028,198.2Z" transform="translate(-104.468 -167.151)" fill="#9980fa"/>
        <path id="Path_29" data-name="Path 29" d="M238.965,238.937h-5.174v-5.124a2.587,2.587,0,0,0-2.587-2.587l-1.538,2.587v38.624L231.2,275.2h7.761V251.922l2.152-1.435a3.881,3.881,0,0,0,1.728-3.229v-4.44A3.88,3.88,0,0,0,238.965,238.937Z" transform="translate(-144.941 -195.009)" fill="#ffe09f"/>
        <path id="Path_30" data-name="Path 30" d="M199.486,139.888a1.293,1.293,0,0,1-.629-2.424l2.621-1.456-2.621-1.456a1.293,1.293,0,1,1,1.256-2.261l4.656,2.587a1.293,1.293,0,0,1,0,2.261l-4.656,2.587A1.284,1.284,0,0,1,199.486,139.888Z" transform="translate(-118.396 -111.432)" fill="#e2a975"/>
        <path id="Path_31" data-name="Path 31" d="M273.512,139.888a1.286,1.286,0,0,1-.627-.163l-4.656-2.587a1.293,1.293,0,0,1,0-2.261l4.656-2.587a1.293,1.293,0,1,1,1.256,2.261l-2.621,1.456,2.621,1.456a1.293,1.293,0,0,1-.629,2.424Z" transform="translate(-176.902 -111.432)" fill="#e2a975"/>
        <path id="Path_32" data-name="Path 32" d="M69.448,209.039H59.1a1.293,1.293,0,1,1,0-2.587H69.448a1.293,1.293,0,1,1,0,2.587Z" transform="translate(0 -174.115)" fill="#43ddc1"/>
        <path id="Path_33" data-name="Path 33" d="M92.131,244.656a1.294,1.294,0,0,1-.58-2.451l5.174-2.587a1.294,1.294,0,1,1,1.157,2.314l-5.174,2.587A1.287,1.287,0,0,1,92.131,244.656Z" transform="translate(-27.856 -201.971)" fill="#43ddc1"/>
        <path id="Path_34" data-name="Path 34" d="M383.253,209.039H372.905a1.293,1.293,0,0,1,0-2.587h10.348a1.293,1.293,0,0,1,0,2.587Z" transform="translate(-264.653 -174.115)" fill="#43ddc1"/>
        <path id="Path_35" data-name="Path 35" d="M378.077,244.656a1.286,1.286,0,0,1-.577-.136l-5.174-2.587a1.294,1.294,0,1,1,1.157-2.314l5.174,2.587a1.294,1.294,0,0,1-.58,2.451Z" transform="translate(-264.652 -201.971)" fill="#43ddc1"/>
        <path id="Path_36" data-name="Path 36" d="M222.968,275.2h2.587V231.226a2.587,2.587,0,0,0-2.587,2.587Z" transform="translate(-139.292 -195.009)" fill="#f6d190"/>
        <path id="Path_37" data-name="Path 37" d="M162.077,213.127a16.212,16.212,0,0,1,9.3-14.708c-8.177.562-14.478,7.71-14.478,16v25.355a1.294,1.294,0,0,0,1.293,1.293h3.88Z" transform="translate(-83.574 -167.34)" fill="#5659a6"/>
      </g>
    </g>
  </g>
</svg>
