<svg id="question" xmlns="http://www.w3.org/2000/svg" width="21.902" height="21.902" viewBox="0 0 21.902 21.902">
  <g id="Group_21" data-name="Group 21">
    <g id="Group_20" data-name="Group 20">
      <circle id="Ellipse_6" data-name="Ellipse 6" cx="1.069" cy="1.069" r="1.069" transform="translate(9.882 15.122)" fill="#ff6a89"/>
      <path id="Path_18" data-name="Path 18" d="M10.951,0A10.951,10.951,0,1,0,21.9,10.951,10.945,10.945,0,0,0,10.951,0Zm0,20.191a9.24,9.24,0,1,1,9.24-9.24A9.235,9.235,0,0,1,10.951,20.191Z" fill="#ff6a89"/>
      <path id="Path_19" data-name="Path 19" d="M179.422,128.5A3.426,3.426,0,0,0,176,131.922a.856.856,0,0,0,1.711,0,1.711,1.711,0,1,1,1.711,1.711.856.856,0,0,0-.856.856v2.139a.856.856,0,0,0,1.711,0v-1.392a3.422,3.422,0,0,0-.856-6.736Z" transform="translate(-168.471 -123.003)" fill="#ff6a89"/>
    </g>
  </g>
</svg>
