<svg xmlns="http://www.w3.org/2000/svg" xmlns:xlink="http://www.w3.org/1999/xlink" width="1157.728" height="809" viewBox="0 0 1157.728 809">
  <defs>
    <filter id="Rectangle_24" x="111.001" y="38" width="191.865" height="191.865" filterUnits="userSpaceOnUse">
      <feOffset input="SourceAlpha"/>
      <feGaussianBlur stdDeviation="11" result="blur"/>
      <feFlood flood-opacity="0.161"/>
      <feComposite operator="in" in2="blur"/>
      <feComposite in="SourceGraphic"/>
    </filter>
    <linearGradient id="linear-gradient" x1="0.5" x2="0.5" y2="1" gradientUnits="objectBoundingBox">
      <stop offset="0" stop-color="#d980fa"/>
      <stop offset="1" stop-color="#5659a6"/>
    </linearGradient>
    <filter id="Rectangle_21" x="886.604" y="38.001" width="191.865" height="191.865" filterUnits="userSpaceOnUse">
      <feOffset input="SourceAlpha"/>
      <feGaussianBlur stdDeviation="11" result="blur-2"/>
      <feFlood flood-opacity="0.161"/>
      <feComposite operator="in" in2="blur-2"/>
      <feComposite in="SourceGraphic"/>
    </filter>
    <filter id="Rectangle_20" x="887.002" y="566.001" width="191.865" height="191.865" filterUnits="userSpaceOnUse">
      <feOffset input="SourceAlpha"/>
      <feGaussianBlur stdDeviation="11" result="blur-3"/>
      <feFlood flood-opacity="0.161"/>
      <feComposite operator="in" in2="blur-3"/>
      <feComposite in="SourceGraphic"/>
    </filter>
    <filter id="Rectangle_19" x="965.863" y="300.001" width="191.865" height="191.865" filterUnits="userSpaceOnUse">
      <feOffset input="SourceAlpha"/>
      <feGaussianBlur stdDeviation="11" result="blur-4"/>
      <feFlood flood-opacity="0.161"/>
      <feComposite operator="in" in2="blur-4"/>
      <feComposite in="SourceGraphic"/>
    </filter>
    <filter id="Rectangle_23" x="0" y="300.001" width="191.865" height="191.865" filterUnits="userSpaceOnUse">
      <feOffset input="SourceAlpha"/>
      <feGaussianBlur stdDeviation="11" result="blur-5"/>
      <feFlood flood-opacity="0.161"/>
      <feComposite operator="in" in2="blur-5"/>
      <feComposite in="SourceGraphic"/>
    </filter>
    <filter id="Rectangle_22" x="111.002" y="566" width="191.865" height="191.865" filterUnits="userSpaceOnUse">
      <feOffset input="SourceAlpha"/>
      <feGaussianBlur stdDeviation="11" result="blur-6"/>
      <feFlood flood-opacity="0.161"/>
      <feComposite operator="in" in2="blur-6"/>
      <feComposite in="SourceGraphic"/>
    </filter>
  </defs>
  <g id="select" transform="translate(-382.998 -3643)">
    <line id="Line_10" data-name="Line 10" y1="491" x2="742" transform="translate(607.5 3795.5)" fill="none" stroke="#43ddc1" stroke-width="1"/>
    <line id="Line_11" data-name="Line 11" x1="742" y1="491" transform="translate(607.5 3795.5)" fill="none" stroke="#43ddc1" stroke-width="1"/>
    <g id="Group_98" data-name="Group 98" transform="translate(-611.999 -469)">
      <g transform="matrix(1, 0, 0, 1, 995, 4112)" filter="url(#Rectangle_24)">
        <rect id="Rectangle_24-2" data-name="Rectangle 24" width="89" height="89" rx="10" transform="translate(206.93 71) rotate(45)" fill="#fff"/>
      </g>
      <g id="contagious-illness" transform="translate(1181.001 4209.566)">
        <path id="Path_167" data-name="Path 167" d="M37.951,28.314,20.3,20.106a16.514,16.514,0,0,0-7.689,3.751C9.11,26.9,7.5,31.376,7.5,36.374A15.534,15.534,0,0,0,23.469,52.309C32.412,52.309,40.028,37,40.028,37q.011-.31.011-.623a16.5,16.5,0,0,0-2.088-8.059Z" transform="translate(-6.898 -3.472)" fill="#9980fa"/>
        <path id="Path_168" data-name="Path 168" d="M18.228,94.27A16.571,16.571,0,0,1,5.711,66.84a16.571,16.571,0,0,0,10.86,29.087q.437,0,.868-.022l1.208-1.64q-.209.005-.419.005Z" transform="translate(0 -46.455)" fill="url(#linear-gradient)"/>
        <path id="Path_169" data-name="Path 169" d="M103.466,33.525c-1.374.419-8.344,2.357-8.605-1.451-.128-1.862,4.957.326,5.675-1.74.331-.953-.207-1.367-1.367-2.03-1.226-.7-.858-3.335,2.22-3.461a16.6,16.6,0,0,0-17.653-8.208c.357.888.955,3.506-3.527,4.979-4.833,1.588-3.991,4-2.865,4.35,1.489.466,2.907-.8,3.418.38.759,1.761-2.14,2.589-3.176,4.315-1.807,3.011,2.183,5.193,3.677,3.176,1.329-1.8.293-3.245,1.674-4,1.015-.558,2.855,1.6,4.011-.035.87-1.229,2.113-2.251,3.678-1.995A2.115,2.115,0,0,1,92.085,29a3.32,3.32,0,0,1-2.745,4.16c-1.951.362-4.123-.7-4.747.742-.76,1.761-1.519,3.09-3.642,3.349a3.041,3.041,0,0,0-2.693,3.78c.627,2.21,7.018,3.905,8.96,6.729l.9.735c2.517-.13,4.547.132,6.644-1A16.577,16.577,0,0,0,103.466,33.525Z" transform="translate(-70.336)" fill="#43ddc1"/>
        <path id="Path_170" data-name="Path 170" d="M211.682,362.158c-.455,0-.9-.018-1.345-.054a2.857,2.857,0,0,1,.556,1.689,16.521,16.521,0,0,0,11.638-5.686A16.5,16.5,0,0,1,211.682,362.158Z" transform="translate(-193.454 -314.343)" fill="#78c2a4"/>
        <path id="Path_171" data-name="Path 171" d="M213.262,315.933,199.9,311.77l1.144-.111a.663.663,0,0,0-.128-1.319l-3.969.384a.662.662,0,0,0-.425,1.107l2.688,2.945a.663.663,0,1,0,.979-.894l-.808-.885,13.489,4.2a.656.656,0,0,0,.2.03.663.663,0,0,0,.2-1.3Z" transform="translate(-180.586 -270.407)" fill="#ff6a89"/>
        <path id="Path_172" data-name="Path 172" d="M177.73,123.321l-17.357-20.256,1.507.637a.663.663,0,0,0,.517-1.221l-4.1-1.731a.663.663,0,0,0-.9.77l1.072,4.315a.663.663,0,0,0,1.287-.32l-.4-1.592,17.361,20.261a.663.663,0,0,0,1.007-.863Z" transform="translate(-144.748 -77.594)" fill="#ff6a89"/>
        <path id="Path_173" data-name="Path 173" d="M291.186,117.857l-8.028-20.378.758.617a.663.663,0,0,0,.838-1.028L281.845,94.7a.663.663,0,0,0-1.081.487l-.15,3.748a.662.662,0,0,0,.636.689h.027a.663.663,0,0,0,.661-.636l.036-.9,7.978,20.251a.663.663,0,0,0,.617.42.653.653,0,0,0,.243-.047.663.663,0,0,0,.374-.86Z" transform="translate(-258.091 -71.942)" fill="#ff6a89"/>
        <circle id="Ellipse_31" data-name="Ellipse 31" cx="0.663" cy="0.663" r="0.663" transform="translate(31.816 40.193)" fill="#ffe07d"/>
        <g id="Group_56" data-name="Group 56" transform="translate(23.832 37.541)">
          <path id="Path_174" data-name="Path 174" d="M317.118,289.221a8.632,8.632,0,0,0-14.158-6.631,8.4,8.4,0,0,0-2.849,6.631,8.136,8.136,0,0,0,8.375,8.3,8.341,8.341,0,0,0,6.632-2.772,8.6,8.6,0,0,0,2-5.525Z" transform="translate(-299.855 -280.589)" fill="#faf5dc"/>
          <path id="Path_175" data-name="Path 175" d="M0,0H10.623V1.328H0Z" transform="translate(12.863 5.345) rotate(135)" fill="#ffd064"/>
          <circle id="Ellipse_32" data-name="Ellipse 32" cx="0.664" cy="0.664" r="0.664" transform="translate(11.724 4.212)" fill="#ffe07d"/>
          <circle id="Ellipse_33" data-name="Ellipse 33" cx="0.664" cy="0.664" r="0.664" transform="translate(4.212 11.724)" fill="#ffe07d"/>
          <path id="Path_176" data-name="Path 176" d="M0,0H10.623V1.328H0Z" transform="translate(5.345 4.4) rotate(45)" fill="#ffd064"/>
          <circle id="Ellipse_34" data-name="Ellipse 34" cx="0.664" cy="0.664" r="0.664" transform="translate(4.212 4.212)" fill="#ffe07d"/>
          <circle id="Ellipse_35" data-name="Ellipse 35" cx="0.664" cy="0.664" r="0.664" transform="translate(11.724 11.724)" fill="#ffe07d"/>
          <path id="Path_177" data-name="Path 177" d="M0,0H10.623V1.328H0Z" transform="translate(9.296 3.32) rotate(90)" fill="#ffd064"/>
          <circle id="Ellipse_36" data-name="Ellipse 36" cx="0.664" cy="0.664" r="0.664" transform="translate(7.968 2.656)" fill="#ffe07d"/>
          <circle id="Ellipse_37" data-name="Ellipse 37" cx="0.664" cy="0.664" r="0.664" transform="translate(7.968 13.279)" fill="#ffe07d"/>
          <path id="Path_178" data-name="Path 178" d="M338.282,379.857h10.623v1.328H338.282Z" transform="translate(-334.962 -371.889)" fill="#ffd064"/>
          <path id="Path_179" data-name="Path 179" d="M372.7,350.088a3.32,3.32,0,0,0-5.115-2.793,3.113,3.113,0,0,0-1.267,2.793,2.934,2.934,0,0,0,3.062,3.109,3.147,3.147,0,0,0,2.8-1.318A3.305,3.305,0,0,0,372.7,350.088Z" transform="translate(-360.747 -341.456)" fill="#ff8086"/>
          <path id="Path_180" data-name="Path 180" d="M367.416,358.446a3.319,3.319,0,0,1-2.791-5.117,3.32,3.32,0,1,0,4.59,4.585A3.324,3.324,0,0,1,367.416,358.446Z" transform="translate(-357.788 -347.491)" fill="#e5646e"/>
          <g id="Group_55" data-name="Group 55" transform="translate(2.656 7.387)">
            <path id="Path_181" data-name="Path 181" d="M410.951,373.947a.664.664,0,0,1-.006-1.328h.006a.664.664,0,0,1,0,1.328Z" transform="translate(-403.841 -372.619)" fill="#ffe07d"/>
            <path id="Path_182" data-name="Path 182" d="M396.814,395.145a.664.664,0,1,1-.005-1.328h.005a.664.664,0,0,1,0,1.328Z" transform="translate(-390.839 -392.116)" fill="#ffe07d"/>
            <path id="Path_183" data-name="Path 183" d="M382.677,373.947a.664.664,0,1,1-.006-1.328h.006a.664.664,0,1,1,0,1.328Z" transform="translate(-377.836 -372.619)" fill="#ffe07d"/>
            <circle id="Ellipse_38" data-name="Ellipse 38" cx="0.664" cy="0.664" r="0.664" transform="translate(0 0.581)" fill="#ffe07d"/>
            <circle id="Ellipse_39" data-name="Ellipse 39" cx="0.664" cy="0.664" r="0.664" transform="translate(10.624 0.581)" fill="#ffe07d"/>
          </g>
          <path id="Path_184" data-name="Path 184" d="M306.658,319.674a8.632,8.632,0,0,1-6.633-14.156,8.632,8.632,0,1,0,12.159,12.156A8.6,8.6,0,0,1,306.658,319.674Z" transform="translate(-296.92 -303.517)" fill="#f5ebcd"/>
        </g>
      </g>
    </g>
    <g id="Group_103" data-name="Group 103" transform="translate(138.604 -289)">
      <g transform="matrix(1, 0, 0, 1, 244.39, 3932)" filter="url(#Rectangle_21)">
        <rect id="Rectangle_21-2" data-name="Rectangle 21" width="89" height="89" rx="10" transform="translate(982.54 71) rotate(45)" fill="#fff"/>
      </g>
      <g id="symptoms_1_" data-name="symptoms (1)" transform="translate(1126.42 4039.999)">
        <g id="Group_41" data-name="Group 41" transform="translate(113.654 31.914)">
          <path id="Path_38" data-name="Path 38" d="M391.488,315.487h-2.52a.84.84,0,1,1,0-1.68h2.52a.84.84,0,0,1,0,1.68Z" transform="translate(-388.129 -313.807)" fill="#5659a6"/>
        </g>
        <g id="Group_42" data-name="Group 42" transform="translate(113.654 35.273)">
          <path id="Path_39" data-name="Path 39" d="M391.488,348.519h-2.52a.84.84,0,0,1,0-1.68h2.52a.84.84,0,0,1,0,1.68Z" transform="translate(-388.129 -346.839)" fill="#5659a6"/>
        </g>
        <g id="Group_43" data-name="Group 43" transform="translate(113.654 38.633)">
          <path id="Path_40" data-name="Path 40" d="M391.488,381.551h-2.52a.84.84,0,0,1,0-1.68h2.52a.84.84,0,0,1,0,1.68Z" transform="translate(-388.129 -379.871)" fill="#5659a6"/>
        </g>
        <g id="Group_44" data-name="Group 44" transform="translate(113.654 41.992)">
          <path id="Path_41" data-name="Path 41" d="M391.488,414.583h-2.52a.84.84,0,0,1,0-1.68h2.52a.84.84,0,0,1,0,1.68Z" transform="translate(-388.129 -412.903)" fill="#5659a6"/>
        </g>
        <path id="Path_42" data-name="Path 42" d="M382.848,272.516l-.6,1.68v2.52l.6.84,1.68-.84V274.2A1.68,1.68,0,0,0,382.848,272.516Z" transform="translate(-269.194 -244.801)" fill="#f6f6f8"/>
        <path id="Path_43" data-name="Path 43" d="M371.613,274.2v2.52l1.68.84v-5.039A1.68,1.68,0,0,0,371.613,274.2Z" transform="translate(-259.638 -244.801)" fill="#f5ebcd"/>
        <path id="Path_44" data-name="Path 44" d="M111.948,307.957l-7.684-3.291a2.52,2.52,0,0,1-1.528-2.316V297.29h-8.4v5.06a2.52,2.52,0,0,1-1.528,2.316l-7.684,3.291a4.2,4.2,0,0,0-2.546,3.86v5.629a1.68,1.68,0,0,0,1.68,1.68h28.555a1.68,1.68,0,0,0,1.68-1.68v-5.629A4.2,4.2,0,0,0,111.948,307.957Z" transform="translate(0 -267.056)" fill="#dad8db"/>
        <path id="Path_45" data-name="Path 45" d="M214.554,399l-4.829-7.2-6.025.062,6.669,9.947a.84.84,0,0,0,1.165.23l2.79-1.871A.84.84,0,0,0,214.554,399Z" transform="translate(-108.802 -351.948)" fill="#9980fa"/>
        <path id="Path_46" data-name="Path 46" d="M189.233,305.548H179.52a2.52,2.52,0,0,0-2.52,2.52v5.039c0,.928,1.716,1.234,6.355,1.234,5,0,8.4-1.895,8.4-3.6v-2.674A2.52,2.52,0,0,0,189.233,305.548Z" transform="translate(-84.817 -274.474)" fill="#9980fa"/>
        <path id="Path_47" data-name="Path 47" d="M161.1,308.6v-3.054h-1.68a2.52,2.52,0,0,0-2.513,2.341l-.006,1.7v3.514c0,.928,3.76,1.68,8.4,1.68s8.4-.752,8.4-1.68v-2.365Zm4.2,4.5c-.927,0-1.818-.031-2.651-.086a1.672,1.672,0,0,1-1.548-1.675v-1.04l11.5,1.953A25.24,25.24,0,0,1,165.3,313.107Z" transform="translate(-66.765 -274.474)" fill="url(#linear-gradient)"/>
        <path id="Path_48" data-name="Path 48" d="M147.386,101.895l-21.093-7.029a11.706,11.706,0,0,0-2.422,7.149v4.2h23.516v-4.2Q147.387,101.955,147.386,101.895Z" transform="translate(-37.092 -85.218)" fill="#785353"/>
        <path id="Path_49" data-name="Path 49" d="M180.677,138.009h-1.26a1.68,1.68,0,0,1-1.68-1.68v-.84a3.359,3.359,0,0,0-3.359-3.359h-8.4a3.344,3.344,0,0,0-1.68.449L162.333,141c0,5.1,2.744,10.306,7.846,10.306a9.4,9.4,0,0,0,1.694-.013,9.241,9.241,0,0,0,7.544-9.083h1.14a2.182,2.182,0,0,0,2.209-1.883A2.1,2.1,0,0,0,180.677,138.009Z" transform="translate(-71.642 -118.692)" fill="#ffe09f"/>
        <path id="Path_50" data-name="Path 50" d="M122.332,146.174v-9.629a3.373,3.373,0,0,0-1.68,2.91v.84a1.68,1.68,0,0,1-1.68,1.68h-1.14a2.182,2.182,0,0,0-2.209,1.883,2.1,2.1,0,0,0,2.089,2.316h1.26a9.238,9.238,0,0,0,9.238,9.238,9.42,9.42,0,0,0,1.694-.155,9.253,9.253,0,0,1-7.573-9.083Z" transform="translate(-29.674 -122.658)" fill="#f6d190"/>
        <circle id="Ellipse_16" data-name="Ellipse 16" cx="6.719" cy="6.719" r="6.719" transform="translate(91.818 0)" fill="#785353"/>
        <path id="Path_51" data-name="Path 51" d="M157.025,49.548a11.735,11.735,0,0,0-9.336,4.609,27.641,27.641,0,0,0,18.574,7.149c.848,0,1.69-.046,2.519-.121A11.757,11.757,0,0,0,157.025,49.548Z" transform="translate(-58.487 -44.509)" fill="#966a5b"/>
        <g id="Group_45" data-name="Group 45" transform="translate(93.498 19.316)">
          <path id="Path_52" data-name="Path 52" d="M190.776,192.456a.84.84,0,0,1-.84-.84v-.84a.84.84,0,0,1,1.68,0v.84A.84.84,0,0,1,190.776,192.456Z" transform="translate(-189.936 -189.936)" fill="#6e4848"/>
        </g>
        <g id="Group_46" data-name="Group 46" transform="translate(101.896 19.316)">
          <path id="Path_53" data-name="Path 53" d="M273.356,192.456a.84.84,0,0,1-.84-.84v-.84a.84.84,0,1,1,1.68,0v.84A.84.84,0,0,1,273.356,192.456Z" transform="translate(-272.516 -189.936)" fill="#6e4848"/>
        </g>
        <g id="Group_47" data-name="Group 47" transform="translate(96.018 25.217)">
          <path id="Path_54" data-name="Path 54" d="M218.909,250.1a.839.839,0,0,1-.49-.158,2.392,2.392,0,0,0-2.377,0,.84.84,0,0,1-.983-1.363,4.073,4.073,0,0,1,4.342,0,.84.84,0,0,1-.492,1.521Z" transform="translate(-214.711 -247.954)" fill="#e2a975"/>
        </g>
        <path id="Path_55" data-name="Path 55" d="M379.587,327.71v-13.9h-1.68l-1.157,18.046,1.157,2.11a3.349,3.349,0,0,0,1.68-6.253Z" transform="translate(-264.253 -281.893)" fill="#ff6a89"/>
        <g id="Group_48" data-name="Group 48" transform="translate(90.139 33.415)">
          <path id="Path_56" data-name="Path 56" d="M161.1,329.278l-4.192-.713c0,.059-.007.119-.007.179v1.525l4.2.713Z" transform="translate(-156.904 -328.565)" fill="#5659a6"/>
        </g>
        <path id="Path_57" data-name="Path 57" d="M358.456,313.806h-1.68v13.9a3.35,3.35,0,0,0,.874,6.159,3.557,3.557,0,0,0,.806.093Z" transform="translate(-244.802 -281.892)" fill="#e5646e"/>
      </g>
    </g>
    <g id="Group_100" data-name="Group 100" transform="translate(-5.998 231)">
      <g transform="matrix(1, 0, 0, 1, 389, 3412)" filter="url(#Rectangle_20)">
        <rect id="Rectangle_20-2" data-name="Rectangle 20" width="89" height="89" rx="10" transform="translate(982.93 599) rotate(45)" fill="#fff"/>
      </g>
      <g id="cough" transform="translate(1277.912 4048)">
        <path id="Path_58" data-name="Path 58" d="M189.844,335.455l-2.56-1.1a2.53,2.53,0,0,1-1.534-2.325v-1.708h-8.432v1.707a2.53,2.53,0,0,1-1.534,2.325l-2.56,1.1-.159,8.928H190Z" transform="translate(-88.66 -296.597)" fill="#f6d190"/>
        <path id="Path_59" data-name="Path 59" d="M214.71,300.663a10.966,10.966,0,0,0,8.432,0V297.29H214.71Z" transform="translate(-126.052 -266.934)" fill="#ecbd83"/>
        <path id="Path_60" data-name="Path 60" d="M164,101.939l-21.179-7.058a11.753,11.753,0,0,0-2.431,7.176v4.216H164v-4.216Q164,102,164,101.939Z" transform="translate(-59.318 -85.193)" fill="#785353"/>
        <path id="Path_61" data-name="Path 61" d="M199.2,138.033h-1.265a1.686,1.686,0,0,1-1.686-1.686V135.5a3.373,3.373,0,0,0-3.373-3.373h-8.432a3.358,3.358,0,0,0-1.687.451L181,140.8c0,5.123,2.615,10.6,7.738,10.6a8.55,8.55,0,0,0,1.618-.024,9.278,9.278,0,0,0,7.578-9.121h1.145a2.191,2.191,0,0,0,2.217-1.891A2.108,2.108,0,0,0,199.2,138.033Z" transform="translate(-95.784 -118.638)" fill="#ffe09f"/>
        <path id="Path_62" data-name="Path 62" d="M138.876,146.22v-9.667a3.385,3.385,0,0,0-1.686,2.921v.843A1.687,1.687,0,0,1,135.5,142h-1.144a2.191,2.191,0,0,0-2.217,1.891,2.108,2.108,0,0,0,2.1,2.326H135.5a9.275,9.275,0,0,0,9.275,9.275,9.43,9.43,0,0,0,1.7-.155A9.288,9.288,0,0,1,138.876,146.22Z" transform="translate(-51.904 -122.61)" fill="#f6d190"/>
        <path id="Path_63" data-name="Path 63" d="M199.036,186.735a.843.843,0,0,1-.41-1.58l1.709-.949-1.709-.949a.843.843,0,1,1,.818-1.474l3.035,1.686a.843.843,0,0,1,0,1.474l-3.035,1.686A.838.838,0,0,1,199.036,186.735Z" transform="translate(-111.22 -163.125)" fill="#e2a975"/>
        <path id="Path_64" data-name="Path 64" d="M271.442,186.735a.838.838,0,0,1-.408-.106L268,184.942a.843.843,0,0,1,0-1.474l3.035-1.686a.843.843,0,1,1,.818,1.474l-1.709.949,1.709.949a.843.843,0,0,1-.41,1.58Z" transform="translate(-173.509 -163.124)" fill="#e2a975"/>
        <path id="Path_65" data-name="Path 65" d="M75.166,291.554a.843.843,0,0,1-.1-1.68l6.746-.843a.843.843,0,0,1,.209,1.673l-6.746.843A.816.816,0,0,1,75.166,291.554Z" transform="translate(0 -259.512)" fill="#dbeaff"/>
        <path id="Path_66" data-name="Path 66" d="M132.971,317.176a.843.843,0,0,1-.469-1.545l2.53-1.686a.843.843,0,0,1,.936,1.4l-2.53,1.686A.84.84,0,0,1,132.971,317.176Z" transform="translate(-51.901 -281.761)" fill="#edf4ff"/>
        <path id="Path_67" data-name="Path 67" d="M109.885,257.686H108.2a.843.843,0,0,1,0-1.686h1.686a.843.843,0,0,1,0,1.686Z" transform="translate(-29.659 -229.86)" fill="#edf4ff"/>
        <path id="Path_68" data-name="Path 68" d="M235.442,251.115h-3.373a.843.843,0,0,1-.843-.843,2.53,2.53,0,0,1,5.059,0A.843.843,0,0,1,235.442,251.115Z" transform="translate(-140.881 -222.445)" fill="#b57f5f"/>
        <path id="Path_69" data-name="Path 69" d="M241.168,355.268a.843.843,0,0,1-.753-1.22l1.076-2.153h-1.165a.843.843,0,0,1-.754-1.22l1.686-3.373a.843.843,0,1,1,1.509.754l-1.076,2.153h1.165a.843.843,0,0,1,.754,1.22l-1.686,3.373A.843.843,0,0,1,241.168,355.268Z" transform="translate(-148.294 -311.42)" fill="#ff6a89"/>
        <path id="Path_70" data-name="Path 70" d="M362.686,291.554a.813.813,0,0,1-.105-.007l-6.746-.843a.843.843,0,0,1,.209-1.673l6.746.843a.843.843,0,0,1-.1,1.68Z" transform="translate(-252.104 -259.512)" fill="#dbeaff"/>
        <path id="Path_71" data-name="Path 71" d="M341.95,317.175a.84.84,0,0,1-.467-.142l-2.53-1.686a.843.843,0,1,1,.935-1.4l2.53,1.686a.843.843,0,0,1-.469,1.545Z" transform="translate(-237.272 -281.76)" fill="#edf4ff"/>
        <path id="Path_72" data-name="Path 72" d="M374.143,257.686h-1.686a.843.843,0,0,1,0-1.686h1.686a.843.843,0,0,1,0,1.686Z" transform="translate(-266.934 -229.86)" fill="#edf4ff"/>
        <circle id="Ellipse_17" data-name="Ellipse 17" cx="6.746" cy="6.746" r="6.746" transform="translate(86.128 0)" fill="#785353"/>
        <path id="Path_73" data-name="Path 73" d="M173.568,49.548a11.786,11.786,0,0,0-9.374,4.629,27.754,27.754,0,0,0,18.65,7.176c.851,0,1.7-.043,2.529-.118A11.807,11.807,0,0,0,173.568,49.548Z" transform="translate(-80.694 -44.489)" fill="#966a5b"/>
        <path id="Path_74" data-name="Path 74" d="M131.139,398.254V392.6a4.216,4.216,0,0,0-2.556-3.876l-3.6-1.53a42.136,42.136,0,0,1-8.132,7.547,3.146,3.146,0,0,1-3.463,0,42.136,42.136,0,0,1-8.132-7.547l-3.6,1.53A4.216,4.216,0,0,0,99.1,392.6v5.651a1.687,1.687,0,0,0,1.686,1.686h28.67a1.686,1.686,0,0,0,1.687-1.686Z" transform="translate(-22.243 -347.661)" fill="#dad8db"/>
        <path id="Path_75" data-name="Path 75" d="M160.927,380.559l-1.557.667s0,.008,0,.011a24.458,24.458,0,0,0,7.658,8.249,4.016,4.016,0,0,0,4.41,0,24.459,24.459,0,0,0,7.658-8.249s0-.007,0-.011l-1.557-.667a22.693,22.693,0,0,1-7.03,7.517,2.33,2.33,0,0,1-2.559,0,22.694,22.694,0,0,1-7.03-7.517Z" transform="translate(-76.362 -341.701)" fill="url(#linear-gradient)"/>
      </g>
    </g>
    <g id="Group_109" data-name="Group 109" transform="translate(1.862 1)">
      <line id="Line_12" data-name="Line 12" y1="6" x2="844" transform="translate(540.364 4037.5)" fill="none" stroke="#43ddc1" stroke-width="1"/>
      <g id="Group_101" data-name="Group 101" transform="translate(2.001 51)">
        <g transform="matrix(1, 0, 0, 1, 379.14, 3591)" filter="url(#Rectangle_19)">
          <rect id="Rectangle_19-2" data-name="Rectangle 19" width="89" height="89" rx="10" transform="translate(1061.8 333) rotate(45)" fill="#fff"/>
        </g>
        <g id="Group_37" data-name="Group 37" transform="translate(500 3466)">
          <circle id="Ellipse_12" data-name="Ellipse 12" cx="19.393" cy="19.393" r="19.393" transform="translate(922 506.225)" fill="#fff"/>
          <g id="symptoms" transform="translate(922 497)">
            <path id="Path_23" data-name="Path 23" d="M101.03,348.631l-4.482-1.793H80.859l-4.482,1.793a3.268,3.268,0,0,0-2.055,3.035v6.285a1.961,1.961,0,0,0,1.961,1.961h9.805l2.694-1.873,2.536,1.873h9.805a1.961,1.961,0,0,0,1.961-1.961v-6.285A3.269,3.269,0,0,0,101.03,348.631Z" transform="translate(-73.015 -319.383)" fill="#dad8db"/>
            <path id="Path_24" data-name="Path 24" d="M184.105,0h-5.441a3.268,3.268,0,0,0-2.719,1.455l-.337.506-1.941,3.268v7.844h15.669V5.229A5.229,5.229,0,0,0,184.105,0Z" transform="translate(-164.495 0)" fill="#966a5b"/>
            <path id="Path_25" data-name="Path 25" d="M144.964,24.774h-1.307a3.268,3.268,0,0,0-3.268,3.268v7.844h4.576Z" transform="translate(-133.851 -22.813)" fill="#785353"/>
            <path id="Path_26" data-name="Path 26" d="M196.95,87.157h-.981a1.307,1.307,0,0,1-1.307-1.307V84.542a1.961,1.961,0,0,0-1.961-1.961h-7.844a1.959,1.959,0,0,0-.654.112L183,91.079c0,3.971,1.807,7.19,5.778,7.19a7.191,7.191,0,0,0,7.191-7.191v-.654h.887a1.7,1.7,0,0,0,1.719-1.466A1.634,1.634,0,0,0,196.95,87.157Z" transform="translate(-173.09 -76.044)" fill="#ffe09f"/>
            <path id="Path_27" data-name="Path 27" d="M137.359,92.371V83.984a1.967,1.967,0,0,0-1.307,1.85v1.307a1.307,1.307,0,0,1-1.307,1.307h-.887a1.7,1.7,0,0,0-1.719,1.466,1.635,1.635,0,0,0,1.626,1.8h.981v.654a7.167,7.167,0,0,0,8.5,7.066A7.188,7.188,0,0,1,137.359,92.371Z" transform="translate(-126.247 -77.336)" fill="#f6d190"/>
            <path id="Path_28" data-name="Path 28" d="M187.413,198.2q-.192,0-.381.016c-4.135.282-5.356,6.088-5.356,8.087v12.814a.654.654,0,0,0,.654.654h12.42a.654.654,0,0,0,.654-.654V206.038A7.844,7.844,0,0,0,187.413,198.2Z" transform="translate(-171.872 -182.506)" fill="#9980fa"/>
            <path id="Path_29" data-name="Path 29" d="M234.366,235.123h-2.615v-2.59a1.307,1.307,0,0,0-1.307-1.307l-.777,1.307v19.519l.777,1.4h3.922V241.685l1.088-.725a1.961,1.961,0,0,0,.873-1.632v-2.244A1.961,1.961,0,0,0,234.366,235.123Z" transform="translate(-216.063 -212.923)" fill="#ffe09f"/>
            <path id="Path_30" data-name="Path 30" d="M198.846,136.049a.654.654,0,0,1-.318-1.225l1.325-.736-1.325-.736a.654.654,0,1,1,.635-1.143l2.353,1.307a.653.653,0,0,1,0,1.143l-2.353,1.307A.649.649,0,0,1,198.846,136.049Z" transform="translate(-187.079 -121.668)" fill="#e2a975"/>
            <path id="Path_31" data-name="Path 31" d="M270.57,136.049a.65.65,0,0,1-.317-.082l-2.353-1.307a.653.653,0,0,1,0-1.143l2.353-1.307a.654.654,0,1,1,.635,1.143l-1.325.736,1.325.736a.654.654,0,0,1-.318,1.225Z" transform="translate(-250.96 -121.668)" fill="#e2a975"/>
            <path id="Path_32" data-name="Path 32" d="M63.69,207.759H58.461a.654.654,0,0,1,0-1.307h5.23a.654.654,0,1,1,0,1.307Z" transform="translate(-57.807 -190.11)" fill="#43ddc1"/>
            <path id="Path_33" data-name="Path 33" d="M91.491,242.1a.654.654,0,0,1-.293-1.239l2.615-1.307a.654.654,0,0,1,.585,1.17l-2.615,1.307A.65.65,0,0,1,91.491,242.1Z" transform="translate(-88.222 -220.525)" fill="#43ddc1"/>
            <path id="Path_34" data-name="Path 34" d="M377.5,207.759h-5.23a.654.654,0,1,1,0-1.307h5.23a.654.654,0,0,1,0,1.307Z" transform="translate(-346.772 -190.11)" fill="#43ddc1"/>
            <path id="Path_35" data-name="Path 35" d="M374.878,242.1a.65.65,0,0,1-.292-.069l-2.615-1.307a.654.654,0,1,1,.585-1.17l2.615,1.307a.654.654,0,0,1-.293,1.239Z" transform="translate(-346.77 -220.525)" fill="#43ddc1"/>
            <path id="Path_36" data-name="Path 36" d="M222.968,253.451h1.307V231.226a1.307,1.307,0,0,0-1.307,1.307Z" transform="translate(-209.894 -212.923)" fill="#f6d190"/>
            <path id="Path_37" data-name="Path 37" d="M159.518,205.852a8.193,8.193,0,0,1,4.7-7.433,8.039,8.039,0,0,0-7.317,8.087v12.814a.654.654,0,0,0,.654.654h1.961Z" transform="translate(-149.059 -182.713)" fill="#5659a6"/>
          </g>
        </g>
      </g>
      <g id="Group_104" data-name="Group 104" transform="translate(-661.862 -120)">
        <g transform="matrix(1, 0, 0, 1, 1043, 3762)" filter="url(#Rectangle_23)">
          <rect id="Rectangle_23-2" data-name="Rectangle 23" width="89" height="89" rx="10" transform="translate(95.93 333) rotate(45)" fill="#fff"/>
        </g>
        <g id="diarrhea" transform="translate(1060.672 4125.945)">
          <path id="Path_76" data-name="Path 76" d="M71.368,190.977,69.75,202.886h2.906V190.977Z" transform="translate(-3.498 -146.304)" fill="#f9cfcf"/>
          <path id="Path_77" data-name="Path 77" d="M71.073,201.721H68.167a.418.418,0,0,1-.414-.474l1.618-11.909a.418.418,0,0,1,.414-.361h1.287a.418.418,0,0,1,.418.418V201.3A.417.417,0,0,1,71.073,201.721Zm-2.428-.835h2.01V189.812h-.5Z" transform="translate(-1.915 -144.721)" fill="#3762cc"/>
          <path id="Path_78" data-name="Path 78" d="M175.276,190.977l1.618,11.909h-2.906V190.977Z" transform="translate(-85.968 -146.304)" fill="#f9cfcf"/>
          <path id="Path_79" data-name="Path 79" d="M175.312,201.721h-2.906a.418.418,0,0,1-.418-.418V189.395a.418.418,0,0,1,.418-.418h1.287a.417.417,0,0,1,.414.361l1.618,11.909a.418.418,0,0,1-.414.474Zm-2.488-.835h2.01l-1.5-11.073h-.5Z" transform="translate(-84.385 -144.721)" fill="#3762cc"/>
          <path id="Path_80" data-name="Path 80" d="M98.545,125.156H87.627a3.77,3.77,0,0,0-3.962,3.542v19.767h18.842V128.7a3.77,3.77,0,0,0-3.963-3.542Z" transform="translate(-14.507 -94.229)" fill="#6bdddd"/>
          <path id="Path_81" data-name="Path 81" d="M83.664,236.769h18.842v2.345H83.664Z" transform="translate(-14.506 -182.533)" fill="#4671c6"/>
          <path id="Path_82" data-name="Path 82" d="M95,32.656l-.055,0v-.8a8.608,8.608,0,0,0-17.215,0v.8l-.055,0a2.6,2.6,0,1,0,0,5.2,2.669,2.669,0,0,0,.282-.015,8.627,8.627,0,0,0,16.76,0,2.672,2.672,0,0,0,.282.015,2.6,2.6,0,1,0,0-5.2Z" transform="translate(-7.693 -13.673)" fill="#f9cfcf"/>
          <path id="Path_83" data-name="Path 83" d="M84.759,43.249a8.967,8.967,0,0,1-8.7-6.561,3.015,3.015,0,0,1-.325-6.011v-.406a9.026,9.026,0,0,1,18.05,0v.406a3.015,3.015,0,0,1-.325,6.011A8.967,8.967,0,0,1,84.759,43.249Zm-8.38-7.412a.417.417,0,0,1,.406.322,8.21,8.21,0,0,0,15.947,0,.417.417,0,0,1,.45-.32,2.254,2.254,0,0,0,.238.013,2.181,2.181,0,1,0,0-4.362l-.059,0a.418.418,0,0,1-.418-.418v-.8a8.19,8.19,0,0,0-16.38,0v.8a.417.417,0,0,1-.125.3.4.4,0,0,1-.3.12l-.047,0h0a2.181,2.181,0,1,0,0,4.362,2.263,2.263,0,0,0,.238-.013l.044,0Z" transform="translate(-6.111 -12.089)" fill="#3762cc"/>
          <path id="Path_84" data-name="Path 84" d="M73.158,27.789a4.965,4.965,0,0,1-.079-3.247l.029-.091a4.965,4.965,0,0,1,6.332-3.19l.1.032a1.145,1.145,0,0,0,.026.148,11.628,11.628,0,0,0,2.082,4.334,11.14,11.14,0,0,1-2.669,4.443h0L77.939,31.27,75.932,30.8a2.632,2.632,0,0,0-1.479.452Z" transform="translate(-5.946 -11.821)" fill="#4671c6"/>
          <path id="Path_85" data-name="Path 85" d="M120.117,13.936a7.411,7.411,0,0,0-4.19-4.581h0c-6.933-3.413-10.725.7-10.725.7a1.151,1.151,0,0,0-.317,1.1,11.5,11.5,0,0,0,5.875,7.5l0,0a11.48,11.48,0,0,0,1.976.8.189.189,0,0,0,.2-.292l-1.426-2.034a.187.187,0,0,1,.264-.261c1.576,1.234,4.639,3.279,7.737,3.382l.5-1.381a7.612,7.612,0,0,0,.094-4.939Z" transform="translate(-31.269 -1.539)" fill="#4671c6"/>
          <path id="Path_86" data-name="Path 86" d="M76.363,30.106a.416.416,0,0,1-.094-.011l-1.959-.454a2.213,2.213,0,0,0-1.2.379.418.418,0,0,1-.625-.2L71.19,26.354a5.407,5.407,0,0,1-.085-3.52l.029-.091A5.383,5.383,0,0,1,78,19.284l.1.032a.418.418,0,0,1,.28.349.846.846,0,0,0,.016.1A11.139,11.139,0,0,0,80.4,23.939a.418.418,0,0,1,.062.4,11.573,11.573,0,0,1-2.776,4.606l-1.024,1.04A.417.417,0,0,1,76.363,30.106Zm-2.008-1.3a.422.422,0,0,1,.094.011l1.78.413.871-.884a10.571,10.571,0,0,0,2.5-4.08,11.96,11.96,0,0,1-2-4.232A4.548,4.548,0,0,0,71.93,23l-.029.091a4.566,4.566,0,0,0,.072,2.974L73.1,29.075a3.048,3.048,0,0,1,1.257-.269Z" transform="translate(-4.369 -10.239)" fill="#3762cc"/>
          <path id="Path_87" data-name="Path 87" d="M117.938,19.135h-.014a13.709,13.709,0,0,1-6.847-2.64l.628.9a.61.61,0,0,1,0,.706.6.6,0,0,1-.66.226,11.852,11.852,0,0,1-8.141-8.6,1.571,1.571,0,0,1,.429-1.5c.257-.264,4.273-4.194,11.2-.783l0,0a7.817,7.817,0,0,1,4.4,4.827,8.06,8.06,0,0,1-.1,5.211l-.5,1.381A.418.418,0,0,1,117.938,19.135Zm-7.85-4.257a.6.6,0,0,1,.371.129c1.466,1.148,4.308,3.061,7.193,3.277l.4-1.091a7.218,7.218,0,0,0,.089-4.668A6.982,6.982,0,0,0,114.186,8.2a.424.424,0,0,1-.051-.025c-6.56-3.214-10.17.587-10.206.626l-.018.018a.734.734,0,0,0-.2.7,11.071,11.071,0,0,0,5.66,7.232,11.172,11.172,0,0,0,1.254.551l-1.029-1.468a.608.608,0,0,1,.492-.958Z" transform="translate(-29.688 0)" fill="#3762cc"/>
          <path id="Path_88" data-name="Path 88" d="M114.017,120.245l-.1.008-.162.008c-.123.005-.246.009-.37.009s-.247,0-.37-.009l-.162-.008-.1-.008a8.614,8.614,0,0,1-3.515-1.03v.989a4.092,4.092,0,0,0,4.017,4.164h.267a4.092,4.092,0,0,0,4.017-4.164v-.989A8.611,8.611,0,0,1,114.017,120.245Z" transform="translate(-34.733 -89.528)" fill="#f9cfcf"/>
          <path id="Path_89" data-name="Path 89" d="M100.924,142.6H82.082a.418.418,0,0,1-.418-.418V122.416a4.191,4.191,0,0,1,4.38-3.959H87v-.823a.418.418,0,0,1,.618-.367,8.152,8.152,0,0,0,3.345.98l.1.008.153.008c.235.01.47.01.7,0l.155-.008.1-.008a8.157,8.157,0,0,0,3.346-.98.418.418,0,0,1,.618.367v.823h.822a4.19,4.19,0,0,1,4.38,3.959v19.767A.417.417,0,0,1,100.924,142.6ZM82.5,141.765h18.007V122.416a3.358,3.358,0,0,0-3.545-3.124H95.71a.418.418,0,0,1-.417-.441l0-.073c0-.052.007-.1.007-.156v-.315a9,9,0,0,1-3.067.772l-.108.008-.171.009c-.256.012-.518.012-.776,0l-.169-.009-.111-.008a9,9,0,0,1-3.065-.772v.315c0,.052,0,.1.007.156l0,.073a.418.418,0,0,1-.417.441H86.044a3.358,3.358,0,0,0-3.545,3.124v19.349Z" transform="translate(-12.924 -87.947)" fill="#3762cc"/>
          <path id="Path_90" data-name="Path 90" d="M100.924,237.95H82.082a.418.418,0,0,1-.418-.418v-2.345a.418.418,0,0,1,.418-.418h18.842a.418.418,0,0,1,.418.418v2.345A.418.418,0,0,1,100.924,237.95ZM82.5,237.114h18.007V235.6H82.5Z" transform="translate(-12.924 -180.95)" fill="#3762cc"/>
          <path id="Path_91" data-name="Path 91" d="M100.309,183.1a.918.918,0,0,1-.835-.983v-.938H94.783a2.272,2.272,0,0,1,0-4.438h11c.065,0,.162-.127.162-.318s-.1-.318-.162-.318H94.9a2.425,2.425,0,0,1,0-4.733h10.83c.1,0,.222-.169.222-.4s-.117-.4-.222-.4h-5.27a1.524,1.524,0,0,1-1.348-1.651v-1.554a.846.846,0,1,1,1.671,0v1.239h4.947a2.42,2.42,0,0,1,0,4.723H94.9c-.107,0-.226.171-.226.4s.119.4.226.4h10.89a2.339,2.339,0,0,1,0,4.568h-11c-.034,0-.112.1-.112.253s.078.253.112.253H99.8a1.524,1.524,0,0,1,1.348,1.651v1.253A.918.918,0,0,1,100.309,183.1Z" transform="translate(-21.892 -126.854)" fill="#f9cfcf"/>
          <path id="Path_92" data-name="Path 92" d="M105.786,193H94.9c-.107,0-.226-.171-.226-.4s.119-.4.226-.4H104v-1.966H94.9a2.425,2.425,0,0,0,0,4.733h10.89c.065,0,.162.127.162.318s-.1.318-.162.318h-5.477v1.966h5.477a2.339,2.339,0,0,0,0-4.567Z" transform="translate(-21.892 -145.716)" fill="#f9a7a7"/>
          <path id="Path_93" data-name="Path 93" d="M98.727,181.934a1.335,1.335,0,0,1-1.253-1.4v-.52H93.2a2.451,2.451,0,0,1-2.2-2.637,2.6,2.6,0,0,1,1.651-2.553A2.772,2.772,0,0,1,91,172.156a2.585,2.585,0,0,1,2.314-2.784h5.2a2.022,2.022,0,0,1-1.4-2.025v-1.554a1.261,1.261,0,1,1,2.506,0v.822h4.529a2.58,2.58,0,0,1,2.31,2.779,2.657,2.657,0,0,1-2.026,2.758,2.569,2.569,0,0,1,2.026,2.688,2.51,2.51,0,0,1-2.25,2.7H99.17a2.174,2.174,0,0,1,.811,1.74v1.253a1.335,1.335,0,0,1-1.253,1.4ZM93.2,175.576a1.871,1.871,0,0,0,0,3.6h4.691a.418.418,0,0,1,.418.418v.938c0,.306.191.565.418.565s.418-.259.418-.565v-1.253c0-.669-.426-1.234-.93-1.234H93.2a.689.689,0,0,1,0-1.341h11a1.938,1.938,0,0,0,0-3.732H93.314a.842.842,0,0,1,0-1.636h10.83a2.018,2.018,0,0,0,0-3.888H99.2a.418.418,0,0,1-.418-.418v-1.239c0-.306-.191-.565-.418-.565s-.418.259-.418.565v1.554c0,.669.426,1.234.93,1.234h5.27a.837.837,0,0,1,0,1.627H93.314a2.024,2.024,0,0,0,0,3.9H104.2a.756.756,0,0,1,0,1.471Z" transform="translate(-20.31 -125.271)" fill="#3762cc"/>
          <path id="Path_94" data-name="Path 94" d="M168.185,199.809a.425.425,0,0,0,.456-.221l1.15-2.3.5.613a.441.441,0,0,0,.367.16.421.421,0,0,0,.339-.2l1.391-2.33a.4.4,0,0,0-.16-.561.432.432,0,0,0-.581.145l-1.077,1.8-.528-.652a.441.441,0,0,0-.382-.159.419.419,0,0,0-.338.226l-1.446,2.891a.407.407,0,0,0,.2.549.433.433,0,0,0,.113.036Z" transform="translate(-81.094 -149.417)" fill="#f9a7a7"/>
          <path id="Path_95" data-name="Path 95" d="M69.583,199.809a.425.425,0,0,1-.456-.221l-1.15-2.3-.5.613a.441.441,0,0,1-.367.16.421.421,0,0,1-.339-.2l-1.391-2.33a.4.4,0,0,1,.16-.561.432.432,0,0,1,.581.145l1.077,1.8.528-.652a.441.441,0,0,1,.382-.159.419.419,0,0,1,.338.226l1.446,2.891a.407.407,0,0,1-.2.549.433.433,0,0,1-.113.036Z" transform="translate(0 -149.417)" fill="#f9a7a7"/>
          <g id="Group_49" data-name="Group 49" transform="translate(72.748 20.39)">
            <path id="Path_96" data-name="Path 96" d="M101.272,78.165a.418.418,0,0,1-.191-.79l1.843-.944-1.843-.944a.418.418,0,0,1,.381-.744l2.125,1.088a.666.666,0,0,1,0,1.2l-2.125,1.088A.412.412,0,0,1,101.272,78.165Zm1.934-1.589h0Z" transform="translate(-100.854 -74.698)" fill="#3762cc"/>
            <path id="Path_97" data-name="Path 97" d="M145.16,78.167a.417.417,0,0,1-.19-.046l-2.125-1.088a.666.666,0,0,1,0-1.2l2.125-1.088a.418.418,0,0,1,.381.744l-1.843.944,1.843.944a.418.418,0,0,1-.191.789Z" transform="translate(-133.779 -74.699)" fill="#3762cc"/>
            <path id="Path_98" data-name="Path 98" d="M120.094,101a.806.806,0,0,1-.679-.453c-.082-.123-.122-.174-.158-.174s-.075.051-.157.174a.734.734,0,0,1-1.356,0c-.163-.245-.15-.245-.313,0a.734.734,0,0,1-1.356,0c-.082-.122-.122-.174-.157-.174a.313.313,0,1,1,0-.627.806.806,0,0,1,.678.453c.163.245.15.245.313,0a.734.734,0,0,1,1.356,0c.163.245.151.245.314,0a.735.735,0,0,1,1.357,0c.164.245.151.245.315,0a.807.807,0,0,1,.679-.453.313.313,0,1,1,0,.627c-.036,0-.076.051-.158.174a.807.807,0,0,1-.679.453Z" transform="translate(-112.524 -94.518)" fill="#3762cc"/>
          </g>
          <path id="Path_99" data-name="Path 99" d="M166.485,121.692a.418.418,0,0,1-.418-.418,1.017,1.017,0,0,0-.195-.329,1.67,1.67,0,0,1-.328-.61,1.7,1.7,0,0,1,.031-.7.363.363,0,0,0-.275-.576,1.683,1.683,0,0,1-.568-.423,1.664,1.664,0,0,1-.264-.657,1.041,1.041,0,0,0-.124-.355,1.076,1.076,0,0,0-.361-.068,1.676,1.676,0,0,1-.7-.172,1.643,1.643,0,0,1-.5-.51c-.075-.1-.188-.263-.25-.284a.418.418,0,0,1,.273-.79,1.424,1.424,0,0,1,.657.588,1.181,1.181,0,0,0,.231.271,1.162,1.162,0,0,0,.361.065,1.125,1.125,0,0,1,1.221,1.061.547.547,0,0,0,.416.538,1.117,1.117,0,0,1,.7,1.468.553.553,0,0,0,.148.661,1.406,1.406,0,0,1,.359.826.417.417,0,0,1-.417.418Z" transform="translate(-76.685 -86.805)" fill="#a4c9ff"/>
          <path id="Path_100" data-name="Path 100" d="M72.767,123.184a.418.418,0,0,1-.418-.418,1.2,1.2,0,0,0-.118-.351,1.385,1.385,0,0,1-.163-.866,1.4,1.4,0,0,1,.529-.72.551.551,0,0,0,.291-.613,1.121,1.121,0,0,1,.988-1.286.542.542,0,0,0,.516-.444,1.127,1.127,0,0,1,1.4-.806,1.165,1.165,0,0,0,.37,0,.418.418,0,1,1,.273.79,1.677,1.677,0,0,1-.724.038,1.084,1.084,0,0,0-.366,0,1.037,1.037,0,0,0-.191.325,1.651,1.651,0,0,1-.389.594,1.677,1.677,0,0,1-.649.3,1.076,1.076,0,0,0-.342.138,1.042,1.042,0,0,0-.047.371,1.312,1.312,0,0,1-.582,1.223c-.1.084-.245.211-.259.272a1.071,1.071,0,0,0,.114.346,1.717,1.717,0,0,1,.188.686.418.418,0,0,1-.418.418Z" transform="translate(-5.315 -88.297)" fill="#a4c9ff"/>
          <path id="Path_101" data-name="Path 101" d="M75.3,144.61v-3.63c0-.1.008-.2.017-.3l-2.225,10.5H75.3Z" transform="translate(-6.141 -106.511)" fill="#6bdddd"/>
          <path id="Path_102" data-name="Path 102" d="M73.717,150.021H71.509a.418.418,0,0,1-.409-.5l2.225-10.5a.418.418,0,0,1,.824.125c-.008.086-.015.173-.015.261v10.2A.418.418,0,0,1,73.717,150.021Zm-1.692-.835H73.3v-6.018Z" transform="translate(-4.559 -104.93)" fill="#3762cc"/>
          <path id="Path_103" data-name="Path 103" d="M173.789,140.617v10.2h2.229l-2.245-10.6h-.01A3.218,3.218,0,0,1,173.789,140.617Z" transform="translate(-85.789 -106.148)" fill="#6bdddd"/>
          <path id="Path_104" data-name="Path 104" d="M174.436,149.656h-2.229a.418.418,0,0,1-.418-.418v-10.2a2.823,2.823,0,0,0-.023-.344.417.417,0,0,1,.472-.465.432.432,0,0,1,.361.328l2.245,10.6a.418.418,0,0,1-.409.5Zm-1.811-.835h1.3l-1.3-6.118Z" transform="translate(-84.207 -104.565)" fill="#3762cc"/>
          <path id="Path_105" data-name="Path 105" d="M168.185,179.809a.425.425,0,0,0,.456-.221l1.15-2.3.5.613a.441.441,0,0,0,.367.16.421.421,0,0,0,.339-.2l1.391-2.33a.4.4,0,0,0-.16-.561.432.432,0,0,0-.581.145l-1.077,1.8-.528-.652a.441.441,0,0,0-.382-.159.419.419,0,0,0-.338.226l-1.446,2.891a.407.407,0,0,0,.2.549A.433.433,0,0,0,168.185,179.809Z" transform="translate(-81.094 -133.594)" fill="#f9a7a7"/>
          <path id="Path_106" data-name="Path 106" d="M69.583,179.809a.425.425,0,0,1-.456-.221l-1.15-2.3-.5.613a.441.441,0,0,1-.367.16.421.421,0,0,1-.339-.2l-1.391-2.33a.4.4,0,0,1,.16-.561.432.432,0,0,1,.581.145l1.077,1.8.528-.652a.441.441,0,0,1,.382-.159.419.419,0,0,1,.338.226l1.446,2.891a.407.407,0,0,1-.2.549.433.433,0,0,1-.113.036Z" transform="translate(0 -133.594)" fill="#f9a7a7"/>
        </g>
      </g>
    </g>
    <g id="Group_99" data-name="Group 99" transform="translate(-700.998 142)">
      <g transform="matrix(1, 0, 0, 1, 1084, 3501)" filter="url(#Rectangle_22)">
        <rect id="Rectangle_22-2" data-name="Rectangle 22" width="89" height="89" rx="10" transform="translate(206.93 599) rotate(45)" fill="#fff"/>
      </g>
      <g id="headache" transform="translate(1186.291 4134.999)">
        <path id="Path_107" data-name="Path 107" d="M199.436,331.171l-.779-.32a1.783,1.783,0,0,1-1.106-1.649v-2.8h-10.7v2.816a1.783,1.783,0,0,1-1.081,1.639l-.791.339.812,7.2,13.6.378Z" transform="translate(-87.665 -291.173)" fill="#f6d190"/>
        <path id="Path_108" data-name="Path 108" d="M155.311,371.908l-3.3-1.354a8.009,8.009,0,0,1-14.454.028l-3.278,1.4-2.461,7.09h25.918Z" transform="translate(-40.239 -330.556)" fill="url(#linear-gradient)"/>
        <path id="Path_109" data-name="Path 109" d="M202.322,300.433a11.54,11.54,0,0,0,10.7,0V297.29h-10.7v3.143Z" transform="translate(-103.134 -265.2)" fill="#ecbd83"/>
        <path id="Path_110" data-name="Path 110" d="M171.994,49.548h-1.783l-9.805,2.674-4.073,15.154h22.792v-10.7A7.131,7.131,0,0,0,171.994,49.548Z" transform="translate(-62.109 -44.2)" fill="#966a5b"/>
        <path id="Path_111" data-name="Path 111" d="M142.5,74.323h-1.783a4.457,4.457,0,0,0-4.457,4.457v10.7h6.24Z" transform="translate(-44.202 -66.3)" fill="#785353"/>
        <path id="Path_112" data-name="Path 112" d="M192.062,138.37h-1.337a1.783,1.783,0,0,1-1.783-1.783V134.8a2.674,2.674,0,0,0-2.674-2.674h-10.7a2.671,2.671,0,0,0-.891.152l-2.346,10.545c0,5.415,3.17,9.636,8.585,9.636a10,10,0,0,0,1.789.006,9.808,9.808,0,0,0,8.016-9.642h1.21a2.316,2.316,0,0,0,2.344-2,2.229,2.229,0,0,0-2.217-2.458Z" transform="translate(-76.383 -117.868)" fill="#ffe09f"/>
        <path id="Path_113" data-name="Path 113" d="M135.132,144.075V133.53a2.683,2.683,0,0,0-1.783,2.523v1.783a1.783,1.783,0,0,1-1.783,1.783h-1.21a2.316,2.316,0,0,0-2.344,2,2.229,2.229,0,0,0,2.217,2.458h1.337a9.814,9.814,0,0,0,11.594,9.642A9.815,9.815,0,0,1,135.132,144.075Z" transform="translate(-36.835 -119.117)" fill="#f6d190"/>
        <path id="Path_114" data-name="Path 114" d="M194.955,187.025a.891.891,0,0,1-.434-1.671l1.806-1-1.806-1a.891.891,0,1,1,.865-1.558l3.209,1.783a.891.891,0,0,1,0,1.558l-3.209,1.783A.886.886,0,0,1,194.955,187.025Z" transform="translate(-95.765 -162.066)" fill="#e2a975"/>
        <path id="Path_115" data-name="Path 115" d="M267.535,187.024a.886.886,0,0,1-.432-.112l-3.209-1.783a.891.891,0,0,1,0-1.558l3.209-1.783a.891.891,0,1,1,.865,1.558l-1.806,1,1.806,1a.891.891,0,0,1-.433,1.671Z" transform="translate(-157.651 -162.066)" fill="#e2a975"/>
        <path id="Path_116" data-name="Path 116" d="M229.663,250.748a.885.885,0,0,1-.5-.157,3.206,3.206,0,0,0-3.076,0,.891.891,0,1,1-1.01-1.469,4.972,4.972,0,0,1,5.1,0,.891.891,0,0,1-.506,1.626Z" transform="translate(-123.084 -221.605)" fill="#e2a975"/>
        <path id="Path_117" data-name="Path 117" d="M202.27,0l-1.52,7.232,2.591.54.041,6.9,6.452-9.32h-3.566l1.392-4.175A.891.891,0,0,0,206.814,0Z" transform="translate(-101.731 0)" fill="#ff6a89"/>
        <g id="Group_50" data-name="Group 50" transform="translate(86.709 0.891)">
          <path id="Path_118" data-name="Path 118" d="M122.416,12.71a.89.89,0,0,1-.743-.4L119.89,9.639a.891.891,0,0,1,1.483-.989l1.783,2.674a.891.891,0,0,1-.741,1.386Z" transform="translate(-116.175 -8.253)" fill="#e5646e"/>
          <path id="Path_119" data-name="Path 119" d="M90.276,52.215a.891.891,0,0,1-.282-.046l-2.674-.891a.892.892,0,0,1,.564-1.691l2.674.891a.892.892,0,0,1-.282,1.738Z" transform="translate(-86.711 -45.083)" fill="#e5646e"/>
          <path id="Path_120" data-name="Path 120" d="M360.114,12.71a.891.891,0,0,1-.741-1.386l1.783-2.674a.891.891,0,0,1,1.483.989l-1.783,2.674A.89.89,0,0,1,360.114,12.71Z" transform="translate(-329.807 -8.252)" fill="#e5646e"/>
          <path id="Path_121" data-name="Path 121" d="M384.892,52.215a.892.892,0,0,1-.282-1.738l2.674-.891a.892.892,0,0,1,.564,1.691l-2.674.891A.891.891,0,0,1,384.892,52.215Z" transform="translate(-351.91 -45.083)" fill="#e5646e"/>
        </g>
        <path id="Path_122" data-name="Path 122" d="M120.152,385.184l-5.08-2.084a11.572,11.572,0,0,1-21.033.078l-5.168,2.213a3.566,3.566,0,0,0-2.162,3.278v6.562a1.783,1.783,0,0,0,1.783,1.783h32.09a1.783,1.783,0,0,0,1.783-1.783v-6.748A3.565,3.565,0,0,0,120.152,385.184Z" transform="translate(0 -341.748)" fill="#dad8db"/>
        <path id="Path_123" data-name="Path 123" d="M198.07,8.156a1.337,1.337,0,0,0-1.33-1.47h-1.18L196.308,0h-.553a.891.891,0,0,0-.886.793l-.8,7.23h2.674l-.765,7.652a.328.328,0,0,0,.6.219l.848-1.225Z" transform="translate(-95.769 0)" fill="#e5646e"/>
      </g>
    </g>
    <text id="Simple_Coronavirus_Symptoms_Selection" data-name="Simple Coronavirus Symptoms Selection" transform="translate(675 3643)" fill="#2f3542" font-size="35" font-family="Montserrat-Bold, Montserrat" font-weight="700"><tspan x="3.495" y="34">Simple Coronavirus Symptoms </tspan><tspan x="199.565" y="79">Selection</tspan></text>
    <text id="Test_Intervene_effectively" data-name="Test &amp; Intervene effectively" transform="translate(821 3784)" fill="#a4b0be" font-size="20" font-family="Montserrat-SemiBold, Montserrat" font-weight="600"><tspan x="0" y="0">Test &amp; Intervene effectively</tspan></text>
    <g id="Group_110" data-name="Group 110" transform="translate(21 -10)">
      <g id="Group_105" data-name="Group 105">
        <g id="Ellipse_73" data-name="Ellipse 73" transform="translate(800.5 3892)" fill="none" stroke="#43ddc1" stroke-width="0.5" opacity="0.53">
          <circle cx="159.5" cy="159.5" r="159.5" stroke="none"/>
          <circle cx="159.5" cy="159.5" r="159.25" fill="none"/>
        </g>
        <ellipse id="Ellipse_75" data-name="Ellipse 75" cx="111" cy="110.5" rx="111" ry="110.5" transform="translate(849.5 3941)" fill="#43ddc1" opacity="0.1"/>
        <g id="Ellipse_74" data-name="Ellipse 74" transform="translate(822.5 3914)" fill="none" stroke="#43ddc1" stroke-width="0.5" opacity="0.64">
          <circle cx="138" cy="138" r="138" stroke="none"/>
          <circle cx="138" cy="138" r="137.75" fill="none"/>
        </g>
        <circle id="Ellipse_76" data-name="Ellipse 76" cx="66.5" cy="66.5" r="66.5" transform="translate(893.5 3985)" fill="#43ddc1" opacity="0.2"/>
        <circle id="Ellipse_77" data-name="Ellipse 77" cx="29" cy="29" r="29" transform="translate(931.5 4023)" fill="#43ddc1" opacity="0.2"/>
        <circle id="Ellipse_78" data-name="Ellipse 78" cx="15.5" cy="15.5" r="15.5" transform="translate(944.5 4036)" fill="#43ddc1"/>
      </g>
      <g id="Group_108" data-name="Group 108" transform="translate(-13 -7)">
        <g id="Group_107" data-name="Group 107" transform="translate(6.207)">
          <path id="Rectangle_25" data-name="Rectangle 25" d="M0,0H116a0,0,0,0,1,0,0V37A25,25,0,0,1,91,62H0a0,0,0,0,1,0,0V0A0,0,0,0,1,0,0Z" transform="translate(933.793 4266)" fill="#a4b0be"/>
          <circle id="Ellipse_101" data-name="Ellipse 101" cx="4" cy="4" r="4" transform="translate(1030.793 4307)" fill="#2f3542"/>
        </g>
        <g id="tap" transform="translate(839.001 4060)">
          <path id="Path_253" data-name="Path 253" d="M197.274,124.93a11.808,11.808,0,0,0-11.657,10.762h-.271v-9.417a12.261,12.261,0,0,0-12.286-12.107,12.107,12.107,0,0,0-12.107,12.107V115.513a12.107,12.107,0,0,0-12.107-12.107,11.955,11.955,0,0,0-11.928,12.107V72.107a12.172,12.172,0,0,0-8.251-11.292A11.912,11.912,0,0,0,124.631,60a12.107,12.107,0,0,0-12.107,12.107v63.585h-5.381A16.161,16.161,0,0,0,91,151.835v29.742a44.616,44.616,0,0,0,24.5,40,5.385,5.385,0,0,0,2.407.568h75.333a5.376,5.376,0,0,0,3.8-1.577,42.415,42.415,0,0,0,12.339-29.784V137.037A12.107,12.107,0,0,0,197.274,124.93Z" transform="translate(0 -38.476)" fill="#e28f47"/>
          <path id="Path_254" data-name="Path 254" d="M264.376,222.026a42.415,42.415,0,0,0,12.339-29.784V138.494a12.107,12.107,0,0,0-12.107-12.107,11.808,11.808,0,0,0-11.657,10.762h-.271v-9.417a12.261,12.261,0,0,0-12.286-12.107,12.107,12.107,0,0,0-12.107,12.107V116.97a12.107,12.107,0,0,0-12.107-12.107,11.955,11.955,0,0,0-11.928,12.107V73.563A12.172,12.172,0,0,0,196,62.271V223.6h64.571A5.376,5.376,0,0,0,264.376,222.026Z" transform="translate(-67.333 -39.933)" fill="#e28f47"/>
        </g>
        <rect id="Rectangle_26" data-name="Rectangle 26" width="78" height="24" transform="translate(957.001 4242)" fill="#e28f47"/>
        <g id="Rectangle_27" data-name="Rectangle 27" transform="translate(956.999 4328)" fill="#707070" stroke="#707070" stroke-width="1">
          <rect width="78" height="141" stroke="none"/>
          <rect x="0.5" y="0.5" width="77" height="140" fill="none"/>
        </g>
      </g>
    </g>
  </g>
</svg>
