<svg xmlns="http://www.w3.org/2000/svg" width="114" height="108.355" viewBox="0 0 114 108.355">
  <g id="home" transform="translate(0 -12.676)">
    <g id="Group_256" data-name="Group 256" transform="translate(0 12.676)">
      <path id="Path_324" data-name="Path 324" d="M112.085,60.816l-9.631-8.775v-29.1A3.353,3.353,0,0,0,99.1,19.591H75.92a3.353,3.353,0,0,0-3.353,3.353v1.865L60.937,14.21a5.819,5.819,0,0,0-7.875,0L1.915,60.816A5.846,5.846,0,0,0,5.852,70.983h8.169v46.7a3.353,3.353,0,0,0,3.353,3.353H45.409a3.353,3.353,0,0,0,3.353-3.353V89.326H65.238v28.352a3.353,3.353,0,0,0,3.353,3.353H96.625a3.352,3.352,0,0,0,3.352-3.353v-46.7h8.171a5.846,5.846,0,0,0,3.937-10.167Zm-15.46,3.462a3.353,3.353,0,0,0-3.353,3.353v46.7H71.944V85.973a3.353,3.353,0,0,0-3.353-3.353H45.409a3.353,3.353,0,0,0-3.353,3.353v28.352H20.726V67.63a3.353,3.353,0,0,0-3.353-3.353H8.07L57,19.693,73.663,34.876a3.352,3.352,0,0,0,5.61-2.478V26.3H95.75V53.521A3.352,3.352,0,0,0,96.845,56l9.085,8.278h-9.3Z" transform="translate(0 -12.676)" fill="#5659a6"/>
    </g>
  </g>
</svg>
