<svg xmlns="http://www.w3.org/2000/svg" width="512" height="424.541" viewBox="0 0 512 424.541">
  <g id="patients" transform="translate(0 -43.729)">
    <g id="Group_270" data-name="Group 270">
      <g id="Group_269" data-name="Group 269">
        <path id="Path_342" data-name="Path 342" d="M437,268.152H386.882a74.8,74.8,0,0,0-19.71,2.646,75.063,75.063,0,0,0-66.877-41.118H211.7A75.063,75.063,0,0,0,144.828,270.8a74.8,74.8,0,0,0-19.71-2.646H75a75.085,75.085,0,0,0-75,75V423.27a45.051,45.051,0,0,0,45,45H467a45.051,45.051,0,0,0,45-45V343.152A75.085,75.085,0,0,0,437,268.152Zm-300.295,36.53V438.271H45a15.017,15.017,0,0,1-15-15V343.153a45.051,45.051,0,0,1,45-45h50.118a44.857,44.857,0,0,1,11.769,1.572C136.779,301.366,136.705,303.016,136.705,304.682ZM345.3,438.271H166.705V304.681a45.051,45.051,0,0,1,45-45H300.3a45.051,45.051,0,0,1,45,45Zm136.7-15a15.017,15.017,0,0,1-15,15H375.295V304.681c0-1.667-.074-3.317-.182-4.957a44.9,44.9,0,0,1,11.769-1.572H437a45.051,45.051,0,0,1,45,45Z" fill="#5659a6"/>
      </g>
    </g>
    <g id="Group_272" data-name="Group 272">
      <g id="Group_271" data-name="Group 271">
        <path id="Path_343" data-name="Path 343" d="M100.06,126.5a66.646,66.646,0,1,0,66.646,66.646A66.721,66.721,0,0,0,100.06,126.5Zm0,103.292a36.646,36.646,0,1,1,36.646-36.646A36.687,36.687,0,0,1,100.059,229.8Z" fill="#5659a6"/>
      </g>
    </g>
    <g id="Group_274" data-name="Group 274">
      <g id="Group_273" data-name="Group 273">
        <path id="Path_344" data-name="Path 344" d="M256,43.729a89.038,89.038,0,1,0,89.038,89.038A89.138,89.138,0,0,0,256,43.729ZM256,191.8a59.038,59.038,0,1,1,59.038-59.038A59.1,59.1,0,0,1,256,191.8Z" fill="#5659a6"/>
      </g>
    </g>
    <g id="Group_276" data-name="Group 276">
      <g id="Group_275" data-name="Group 275">
        <path id="Path_345" data-name="Path 345" d="M411.94,126.5a66.646,66.646,0,1,0,66.646,66.646A66.722,66.722,0,0,0,411.94,126.5Zm0,103.292a36.646,36.646,0,1,1,36.646-36.646A36.688,36.688,0,0,1,411.94,229.8Z" fill="#5659a6"/>
      </g>
    </g>
  </g>
</svg>
