<svg xmlns="http://www.w3.org/2000/svg" width="113.19" height="118.73" viewBox="0 0 113.19 118.73">
  <g id="power" transform="translate(-11.947)">
    <g id="Group_258" data-name="Group 258" transform="translate(11.947 7.653)">
      <g id="Group_257" data-name="Group 257">
        <path id="Path_325" data-name="Path 325" d="M84.466,33.161a3.958,3.958,0,0,0-2.223,7.6,48.68,48.68,0,1,1-27.4,0,3.958,3.958,0,0,0-2.223-7.6,56.595,56.595,0,1,0,31.85,0Z" transform="translate(-11.947 -33.001)" fill="#5659a6"/>
      </g>
    </g>
    <g id="Group_260" data-name="Group 260" transform="translate(64.584)">
      <g id="Group_259" data-name="Group 259">
        <path id="Path_326" data-name="Path 326" d="M242.891,0a3.958,3.958,0,0,0-3.958,3.958V41.307a3.958,3.958,0,1,0,7.915,0V3.958A3.958,3.958,0,0,0,242.891,0Z" transform="translate(-238.933)" fill="#5659a6"/>
      </g>
    </g>
  </g>
</svg>
