<svg id="settings" xmlns="http://www.w3.org/2000/svg" width="121.652" height="121.652" viewBox="0 0 121.652 121.652">
  <path id="Path_340" data-name="Path 340" d="M64.644,121.652H57.009a11.212,11.212,0,0,1-11.2-11.2V107.87a49.112,49.112,0,0,1-7.626-3.166l-1.83,1.83a11.2,11.2,0,0,1-15.84,0l-5.4-5.4a11.2,11.2,0,0,1,0-15.84l1.829-1.829a49.115,49.115,0,0,1-3.166-7.626H11.2A11.212,11.212,0,0,1,0,64.644V57.009a11.212,11.212,0,0,1,11.2-11.2h2.583a49.126,49.126,0,0,1,3.166-7.626l-1.83-1.83a11.2,11.2,0,0,1,0-15.84l5.4-5.4a11.2,11.2,0,0,1,15.84,0l1.829,1.829a49.158,49.158,0,0,1,7.626-3.166V11.2A11.212,11.212,0,0,1,57.009,0h7.635a11.212,11.212,0,0,1,11.2,11.2v2.583a49.112,49.112,0,0,1,7.626,3.166l1.83-1.83a11.2,11.2,0,0,1,15.84,0l5.4,5.4a11.2,11.2,0,0,1,0,15.84L104.7,38.183a49.116,49.116,0,0,1,3.166,7.626h2.583a11.212,11.212,0,0,1,11.2,11.2v7.635a11.212,11.212,0,0,1-11.2,11.2H107.87a49.126,49.126,0,0,1-3.166,7.626l1.83,1.83a11.2,11.2,0,0,1,0,15.84l-5.4,5.4a11.2,11.2,0,0,1-15.84,0l-1.829-1.829a49.158,49.158,0,0,1-7.626,3.166v2.583A11.212,11.212,0,0,1,64.644,121.652ZM39.375,97.22a42.011,42.011,0,0,0,10.89,4.52,3.564,3.564,0,0,1,2.674,3.451v5.262a4.076,4.076,0,0,0,4.071,4.071h7.635a4.076,4.076,0,0,0,4.071-4.071v-5.262a3.564,3.564,0,0,1,2.674-3.451,42.011,42.011,0,0,0,10.89-4.52,3.564,3.564,0,0,1,4.335.548L90.34,101.5a4.07,4.07,0,0,0,5.756,0l5.4-5.4a4.07,4.07,0,0,0,0-5.756l-3.729-3.729a3.564,3.564,0,0,1-.548-4.334,42,42,0,0,0,4.52-10.89,3.564,3.564,0,0,1,3.451-2.673h5.262a4.076,4.076,0,0,0,4.071-4.071V57.009a4.076,4.076,0,0,0-4.071-4.071h-5.262a3.564,3.564,0,0,1-3.451-2.673,42.012,42.012,0,0,0-4.52-10.89,3.564,3.564,0,0,1,.548-4.334l3.728-3.728a4.07,4.07,0,0,0,0-5.756l-5.4-5.4a4.07,4.07,0,0,0-5.756,0l-3.729,3.729a3.564,3.564,0,0,1-4.335.548,42.011,42.011,0,0,0-10.89-4.52,3.564,3.564,0,0,1-2.674-3.451V11.2a4.076,4.076,0,0,0-4.071-4.071H57.009A4.076,4.076,0,0,0,52.938,11.2v5.262a3.564,3.564,0,0,1-2.674,3.451,42.011,42.011,0,0,0-10.89,4.52,3.564,3.564,0,0,1-4.335-.548l-3.728-3.728a4.07,4.07,0,0,0-5.756,0l-5.4,5.4a4.07,4.07,0,0,0,0,5.756l3.729,3.729a3.564,3.564,0,0,1,.548,4.334,42,42,0,0,0-4.52,10.89,3.564,3.564,0,0,1-3.451,2.673H11.2a4.076,4.076,0,0,0-4.071,4.071v7.635A4.076,4.076,0,0,0,11.2,68.715h5.262a3.564,3.564,0,0,1,3.451,2.673,42.012,42.012,0,0,0,4.52,10.89,3.564,3.564,0,0,1-.548,4.334l-3.728,3.728a4.07,4.07,0,0,0,0,5.756l5.4,5.4a4.07,4.07,0,0,0,5.756,0l3.729-3.729a3.581,3.581,0,0,1,4.335-.547Z" fill="#5659a6"/>
  <path id="Path_341" data-name="Path 341" d="M171.069,197.538a26.469,26.469,0,1,1,26.469-26.469A26.5,26.5,0,0,1,171.069,197.538Zm0-45.81a19.341,19.341,0,1,0,19.341,19.341A19.363,19.363,0,0,0,171.069,151.728Z" transform="translate(-110.243 -110.243)" fill="#5659a6"/>
</svg>
