<svg xmlns="http://www.w3.org/2000/svg" width="54.574" height="41.775" viewBox="0 0 54.574 41.775">
  <g id="users" transform="translate(0 -60.039)">
    <path id="Path_296" data-name="Path 296" d="M148.94,77.1a13.112,13.112,0,0,0,2.964,8.242,9,9,0,0,0,14.555,0,13.122,13.122,0,0,0,2.955-8.238V74.489a35.343,35.343,0,0,0,.917-7.9,17.253,17.253,0,0,0-.492-4.67,1.089,1.089,0,0,0-1.09-.581,17.927,17.927,0,0,1-5.591-.578c-3.338-.67-7.108-1.426-9.992.573-.026,0-.052,0-.078,0a5.188,5.188,0,0,0-4.046,1.821,6.493,6.493,0,0,0-1.419,4.2,49.174,49.174,0,0,0,1.317,8.365V77.1Zm16.206,7.156a7.307,7.307,0,0,1-11.929,0,11.379,11.379,0,0,1-2.572-7.153V76.074c0-2.109,1.416-4.976,1.954-5.988a26.79,26.79,0,0,1,13.967,1.787l1.143,2.693V77.1A11.389,11.389,0,0,1,165.146,84.253ZM153.089,63.029a4.024,4.024,0,0,0,.874-.174c2.3-1.746,5.635-1.077,8.86-.429a25.868,25.868,0,0,0,4.912.678q.319,0,.631-.02a28.106,28.106,0,0,1-.113,8.4l-.241-.567a.853.853,0,0,0-.376-.415c-.245-.134-6.094-3.259-15.614-2.064a.852.852,0,0,0-.7.425,24.091,24.091,0,0,0-1.439,3.047,28.776,28.776,0,0,1-.559-4.56C149.328,64.364,151.217,63.029,153.089,63.029Z" transform="translate(-131.888 0)" fill="#e5646e"/>
    <path id="Path_297" data-name="Path 297" d="M106.427,318.422l-.056-.014-5.073-1.061-1.341-2.034-.03-.042a1.5,1.5,0,0,0-2.149-.261l-.016.014-6.032,5.193L85.7,315.024l-.016-.014a1.5,1.5,0,0,0-2.149.261l-.03.042-1.341,2.034-5.073,1.061-.056.014a6.484,6.484,0,0,0-3.629,2.645,7.32,7.32,0,0,0-1.272,4.084v1.6a2.683,2.683,0,0,0,2.792,2.551h33.613a2.683,2.683,0,0,0,2.792-2.551v-1.6a7.32,7.32,0,0,0-1.272-4.084A6.484,6.484,0,0,0,106.427,318.422Zm-7.743-1.941,1.059,1.605-4.237,5.826-2.523-2.523Zm-7.513,9.42H92.29l.34,1.7h-1.8Zm1.412-2.173c0,.281-.171.467-.284.467H91.162c-.113,0-.284-.186-.284-.467V323.4l.853-.853.853.853v.328Zm-7.807-7.248,5.7,4.908-2.523,2.523-4.237-5.826ZM73.837,326.755v-1.6a5.3,5.3,0,0,1,3.63-5.08l4.848-1.014,4.847,6.664a.853.853,0,0,0,.623.349l.067,0a.853.853,0,0,0,.6-.25l.994-.994a2.176,2.176,0,0,0,.149.239l-.506,2.532H74.924A1,1,0,0,1,73.837,326.755Zm35.786,0a1,1,0,0,1-1.086.845H94.369l-.506-2.532a2.184,2.184,0,0,0,.149-.239l.994.994a.853.853,0,0,0,.6.25l.067,0a.853.853,0,0,0,.623-.349l4.847-6.664,4.848,1.014a5.3,5.3,0,0,1,3.63,5.08Z" transform="translate(-64.444 -227.492)" fill="#e5646e"/>
    <path id="Path_298" data-name="Path 298" d="M57.094,135.828a8.266,8.266,0,0,0,1.985,5.475,6.462,6.462,0,0,0,4.885,2.3,6.3,6.3,0,0,0,3.864-1.34.853.853,0,0,0-1.039-1.352,4.612,4.612,0,0,1-2.825.986c-2.848,0-5.165-2.721-5.165-6.065v-.5a14.061,14.061,0,0,1,.849-3.975,19.973,19.973,0,0,1,4.826.276l.152.022a.866.866,0,0,0,.125.009.853.853,0,0,0,.123-1.7l-.151-.022a20.3,20.3,0,0,0-5.795-.228H58.92l-.009,0c-.024,0-.049.008-.073.013l-.04.011-.039.011-.049.019-.027.011-.048.024-.026.013-.043.026-.028.018-.034.026-.032.026-.026.024-.035.034-.02.023c-.012.013-.023.026-.034.04l-.018.025c-.01.014-.02.027-.029.042s-.014.024-.021.037-.013.023-.02.035-.022.046-.031.07l0,.006h0l0,.006c-.015.038-.076.2-.164.446a12.376,12.376,0,0,1-.113-1.462c0-1.843.889-2.668,1.771-2.668a.77.77,0,0,1,.245,0,.849.849,0,0,0,.515-.174,4.482,4.482,0,0,1,3.329-.659.853.853,0,1,0,.168-1.7,6.442,6.442,0,0,0-4.284.825c-2.032.016-3.448,1.81-3.448,4.373a34.892,34.892,0,0,0,.844,5.679Z" transform="translate(-50.254 -57.132)" fill="#e5646e"/>
    <path id="Path_299" data-name="Path 299" d="M5.969,306.2h-3.8c-.268,0-.468-.16-.468-.3V304.81a3.33,3.33,0,0,1,2.265-3.194l3.105-.65,1.6,2.313a.853.853,0,0,0,1.4-.972l-1.6-2.3.472-.715,3.325,2.483a.853.853,0,1,0,1.02-1.366l-3.65-2.725a1.293,1.293,0,0,0-1.834.24l-.03.042-.851,1.291-3.344.7-.056.014A5.059,5.059,0,0,0,0,304.81V305.9a2.1,2.1,0,0,0,2.173,2.009h3.8a.853.853,0,0,0,0-1.705Z" transform="translate(0 -212.064)" fill="#e5646e"/>
    <path id="Path_300" data-name="Path 300" d="M347.392,117.684a29.691,29.691,0,0,1,3.98.466c1.013.164,1.983.319,2.825.373-.03,2.019-.162,3.835-.312,5.3l-.005,0-.041-.028-.019-.013-.022-.013,0,0a14.05,14.05,0,0,0-6.322-1.812.853.853,0,1,0-.128,1.7,12.636,12.636,0,0,1,5.369,1.455,8.233,8.233,0,0,1,.647,3.066v.5c0,3.344-2.317,6.065-5.165,6.065a4.613,4.613,0,0,1-2.825-.986.853.853,0,0,0-1.039,1.352,6.3,6.3,0,0,0,3.864,1.339,6.461,6.461,0,0,0,4.885-2.3,8.266,8.266,0,0,0,1.985-5.475v-.922a58.214,58.214,0,0,0,.843-9.854.851.851,0,0,0-.83-1.066h-.021l-.049,0a18.838,18.838,0,0,1-3.363-.367,31.394,31.394,0,0,0-4.219-.488.853.853,0,1,0-.034,1.7Z" transform="translate(-307.332 -49.977)" fill="#e5646e"/>
    <path id="Path_301" data-name="Path 301" d="M394.108,299.966l-.056-.014-3.344-.7-.851-1.291-.03-.042a1.293,1.293,0,0,0-1.834-.24l-3.65,2.725a.853.853,0,0,0,1.02,1.367l3.326-2.483.472.715-1.6,2.3a.853.853,0,1,0,1.4.972l1.6-2.313,3.105.65a3.33,3.33,0,0,1,2.265,3.194V305.9c0,.143-.2.3-.468.3h-3.8a.853.853,0,1,0,0,1.705h3.8a2.1,2.1,0,0,0,2.173-2.009v-1.092A5.059,5.059,0,0,0,394.108,299.966Z" transform="translate(-343.07 -212.063)" fill="#e5646e"/>
  </g>
</svg>
